<svg width="393" height="209" viewBox="0 0 393 209" fill="none" xmlns="http://www.w3.org/2000/svg">
<path d="M156.5 164L11 192.5L154.5 173.5L276 208L380 194.5L277 204L156.5 164Z" fill="black" stroke="black" stroke-linejoin="round"/>
<path d="M191.5 76L162 64L191.5 83.5L214.5 71L246.5 79.5L214.5 64L191.5 76Z" fill="black" stroke="black" stroke-linejoin="round"/>
<path d="M1 186L63 82L95.5761 109L206 1L263.5 81.6906L301 54L392.5 190.5L296.5 78.5L268.352 88.5L296.5 128L206 22L97.3254 110.45L118.5 128L91 115.598L67.5 105L1 186Z" fill="black"/>
<path d="M63 82L1 186L67.5 105M63 82L95.5761 109L206 1M63 82L118.5 128L67.5 105M206 1L263.5 81.6906L301 54L392.5 190.5L296.5 78.5L268.352 88.5L296.5 128M206 1L296.5 128M296.5 128L206 22L91 115.598L67.5 105" stroke="black" stroke-linejoin="round"/>
</svg>
